<?xml version="1.0" encoding="UTF-8"?>
<svg width="250px" height="100px" viewBox="0 0 250 100" version="1.1" xmlns="http://www.w3.org/2000/svg" xmlns:xlink="http://www.w3.org/1999/xlink">
    <title>Logo + Wordmark (Yellow)</title>
    <g id="Logo-+-Wordmark-(Yellow)" stroke="none" stroke-width="1" fill="none" fill-rule="evenodd">
        <text id="SoundBytes" font-family="Verdana" font-size="24" font-weight="normal" fill="#FAC134">
            <tspan x="74.3925781" y="60">SoundBytes</tspan>
        </text>
        <g id="Logo" transform="translate(31.000000, 29.000000)" fill="#FAC134" fill-rule="nonzero">
            <path d="M3.25019531,43.2576293 C2.38347656,43.2576293 1.62509766,42.9348513 0.975058594,42.2892953 C0.325019531,41.6437392 0,40.8905905 0,40.0298491 L0,3.44834052 C0,2.58759914 0.325019531,1.83445043 0.975058594,1.1888944 C1.62509766,0.543338362 2.38347656,0.220560345 3.25019531,0.220560345 L22.8055371,0.220560345 L34.66875,12.001958 L34.66875,40.0298491 C34.66875,40.8905905 34.3437305,41.6437392 33.6936914,42.2892953 C33.0436523,42.9348513 32.2852734,43.2576293 31.4185547,43.2576293 L3.25019531,43.2576293 Z M3.34732759,39.9103017 L31.5605172,39.9103017 C31.5605172,39.9103017 31.5605172,39.9103017 31.5605172,39.9103017 C31.5605172,39.9103017 31.5605172,39.9103017 31.5605172,39.9103017 L31.5605172,13.3349116 L21.3061079,13.3349116 L21.3061079,3.3287931 L3.34732759,3.3287931 C3.34732759,3.3287931 3.34732759,3.3287931 3.34732759,3.3287931 C3.34732759,3.3287931 3.34732759,3.3287931 3.34732759,3.3287931 L3.34732759,39.9103017 C3.34732759,39.9103017 3.34732759,39.9103017 3.34732759,39.9103017 C3.34732759,39.9103017 3.34732759,39.9103017 3.34732759,39.9103017 Z M3.10823276,39.9103017 C3.10823276,39.9103017 3.10823276,39.9103017 3.10823276,39.9103017 C3.10823276,39.9103017 3.10823276,39.9103017 3.10823276,39.9103017 L3.10823276,13.3349116 L3.10823276,3.3287931 C3.10823276,3.3287931 3.10823276,3.3287931 3.10823276,3.3287931 C3.10823276,3.3287931 3.10823276,3.3287931 3.10823276,3.3287931 L3.10823276,39.9103017 C3.10823276,39.9103017 3.10823276,39.9103017 3.10823276,39.9103017 C3.10823276,39.9103017 3.10823276,39.9103017 3.10823276,39.9103017 Z" id="Shape"></path>
            <path d="M13.6284052,26.5395259 L13.6284052,17.2148276 L14.8238793,17.2148276 L14.8238793,26.5395259 L13.6284052,26.5395259 Z M16.7366379,29.6477586 L16.7366379,13.3893103 L17.9321121,13.3893103 L17.9321121,29.6477586 L16.7366379,29.6477586 Z M10.5201724,22.9531034 L10.5201724,19.8448707 L11.7156466,19.8448707 L11.7156466,22.9531034 L10.5201724,22.9531034 Z M19.8448707,26.5395259 L19.8448707,17.2148276 L21.0403448,17.2148276 L21.0403448,26.5395259 L19.8448707,26.5395259 Z M23.4312931,22.9531034 L23.4312931,19.8448707 L24.6267672,19.8448707 L24.6267672,22.9531034 L23.4312931,22.9531034 Z" id="Shape"></path>
        </g>
    </g>
</svg>