<?xml version="1.0" encoding="UTF-8"?>
<svg width="200px" height="200px" viewBox="0 0 200 200" version="1.1" xmlns="http://www.w3.org/2000/svg" xmlns:xlink="http://www.w3.org/1999/xlink">
    <title>Logo</title>
    <g id="Logo" stroke="none" stroke-width="1" fill="none" fill-rule="evenodd">
        <g transform="translate(27.000000, 10.077519)" fill="#000000" fill-rule="nonzero" id="Shape">
            <path d="M13.59375,180.922481 C9.96875,180.922481 6.796875,179.572481 4.078125,176.872481 C1.359375,174.172481 0,171.022481 0,167.422481 L0,14.4224806 C0,10.8224806 1.359375,7.67248062 4.078125,4.97248062 C6.796875,2.27248062 9.96875,0.92248062 13.59375,0.92248062 L95.3828125,0.92248062 L145,50.1974806 L145,167.422481 C145,171.022481 143.640625,174.172481 140.921875,176.872481 C138.203125,179.572481 135.03125,180.922481 131.40625,180.922481 L13.59375,180.922481 Z M14,166.922481 L132,166.922481 C132,166.922481 132,166.922481 132,166.922481 C132,166.922481 132,166.922481 132,166.922481 L132,55.7724806 L89.1115385,55.7724806 L89.1115385,13.9224806 L14,13.9224806 C14,13.9224806 14,13.9224806 14,13.9224806 C14,13.9224806 14,13.9224806 14,13.9224806 L14,166.922481 C14,166.922481 14,166.922481 14,166.922481 C14,166.922481 14,166.922481 14,166.922481 Z M13,166.922481 C13,166.922481 13,166.922481 13,166.922481 C13,166.922481 13,166.922481 13,166.922481 L13,55.7724806 L13,13.9224806 C13,13.9224806 13,13.9224806 13,13.9224806 C13,13.9224806 13,13.9224806 13,13.9224806 L13,166.922481 C13,166.922481 13,166.922481 13,166.922481 C13,166.922481 13,166.922481 13,166.922481 Z"></path>
            <path d="M57,111 L57,72 L62,72 L62,111 L57,111 Z M70,124 L70,56 L75,56 L75,124 L70,124 Z M44,96 L44,83 L49,83 L49,96 L44,96 Z M83,111 L83,72 L88,72 L88,111 L83,111 Z M98,96 L98,83 L103,83 L103,96 L98,96 Z"></path>
        </g>
    </g>
</svg>